<?xml version="1.0" encoding="utf-8"?>
<!-- Generator: Adobe Illustrator 14.0.0, SVG Export Plug-In . SVG Version: 6.00 Build 43363)  -->
<!DOCTYPE svg PUBLIC "-//W3C//DTD SVG 1.1//EN" "http://www.w3.org/Graphics/SVG/1.1/DTD/svg11.dtd">
<svg version="1.1" id="Layer_1" xmlns="http://www.w3.org/2000/svg" xmlns:xlink="http://www.w3.org/1999/xlink" x="0px" y="0px"
	 width="600px" height="600px" viewBox="0 0 600 600" enable-background="new 0 0 600 600" xml:space="preserve">
<polygon fill="none" stroke="#000000" points="-261.479,62.151 -261.479,62.151 -261.479,62.151 "/>
<g>
	<g>
		<g>
			<path d="M163.095,366.268c23.171-26.314,46.343-52.633,69.514-78.951c23.688-26.902,47.374-53.805,71.061-80.708
				c0.007-0.009,0.015-0.017,0.023-0.026c5.063-5.751-3.014-14.466-8.101-8.688c-23.172,26.317-46.343,52.634-69.514,78.952
				c-23.688,26.902-47.374,53.807-71.061,80.709c-0.007,0.01-0.016,0.018-0.023,0.025
				C149.931,363.332,158.008,372.047,163.095,366.268L163.095,366.268z"/>
		</g>
	</g>
	<g>
		<g>
			<path d="M264.578,175.129c15.743,16.838,31.487,33.675,47.23,50.514c5.226,5.588,13.256-3.176,8.014-8.782
				c-15.743-16.837-31.486-33.675-47.23-50.513C267.366,160.759,259.336,169.523,264.578,175.129L264.578,175.129z"/>
		</g>
	</g>
	<g>
		<g>
			<path d="M310.117,221.207c0,15.463,0,30.926,0,46.389c0,7.976,11.396,8.046,11.396,0.089c0-15.463,0-30.927,0-46.389
				C321.513,213.32,310.117,213.249,310.117,221.207L310.117,221.207z"/>
		</g>
	</g>
	<g>
		<g>
			<path d="M314.628,273.817c12.978,0,25.956,0,38.934,0c7.356,0,7.421-12.355,0.081-12.355c-12.979,0-25.956,0-38.934,0
				C307.353,261.462,307.287,273.817,314.628,273.817L314.628,273.817z"/>
		</g>
	</g>
	<g>
		<g>
			<path d="M264.534,166.394c-9.539,10.61-19.079,21.22-28.619,31.83c-5.122,5.696,2.959,14.405,8.101,8.688
				c9.54-10.609,19.08-21.22,28.62-31.83C277.757,169.385,269.675,160.676,264.534,166.394L264.534,166.394z"/>
		</g>
	</g>
	<g>
		<g>
			<path d="M231.008,279.882c13.317,14.673,26.635,29.345,39.952,44.019c5.151,5.676,13.175-3.098,8.015-8.783
				c-13.317-14.672-26.635-29.346-39.953-44.018C233.871,265.424,225.848,274.196,231.008,279.882L231.008,279.882z"/>
		</g>
	</g>
	<g>
		<g>
			<path d="M272.082,314.182c-14.892,8.533-29.785,17.068-44.678,25.602c-6.494,3.723-0.717,14.373,5.769,10.654
				c14.893-8.533,29.785-17.068,44.678-25.602C284.346,321.115,278.568,310.465,272.082,314.182L272.082,314.182z"/>
		</g>
	</g>
	<g id="XMLID_1_">
		<g>
			<path d="M325.274,163.146c9.326,0,16.883,8.193,16.883,18.305c0,10.104-7.557,18.305-16.883,18.305
				c-9.32,0-16.878-8.202-16.878-18.305C308.397,171.339,315.955,163.146,325.274,163.146z"/>
		</g>
		<g>
			<path fill="none" stroke="#000000" d="M342.158,181.451c0-10.112-7.558-18.305-16.883-18.305c-9.32,0-16.878,8.193-16.878,18.305
				c0,10.104,7.558,18.305,16.878,18.305C334.601,199.756,342.158,191.555,342.158,181.451z"/>
		</g>
	</g>
	<g>
		<g>
			<path d="M247.207,288.272c19.751-23.757,39.503-47.514,59.255-71.27c4.898-5.892-3.165-14.624-8.1-8.689
				c-19.752,23.757-39.504,47.513-59.255,71.27C234.208,285.476,242.272,294.209,247.207,288.272L247.207,288.272z"/>
		</g>
	</g>
</g>
<text transform="matrix(1.5449 0 0 1 83.895 212.6309)" fill="#908FB3" font-family="'MyriadPro-Bold'" font-size="76.0056">Y</text>
<text transform="matrix(1.2241 0 0 1 89.5063 426.3994)" fill="#908FB3" font-family="'MyriadPro-Bold'" font-size="95.9191">o</text>
<text transform="matrix(1.1322 0 0 1 91.5063 267.6055)" fill="#908FB3" font-family="'MyriadPro-Bold'" font-size="103.7121">a</text>
<text transform="matrix(1.4486 0 0 1 91.5063 321.4795)" fill="#908FB3" font-family="'MyriadPro-Bold'" font-size="99.5992">s</text>
<text transform="matrix(1.4486 0 0 1 91.5063 375.4795)" fill="#908FB3" font-family="'MyriadPro-Bold'" font-size="99.5992">s</text>
<text transform="matrix(1.6233 0 0 1 167.1958 426.7988)" fill="#908FB3" font-family="'MyriadPro-Bold'" font-size="72.3885">800</text>
</svg>
