<?xml version="1.0" encoding="utf-8"?>
<!-- Generator: Adobe Illustrator 14.0.0, SVG Export Plug-In . SVG Version: 6.00 Build 43363)  -->
<!DOCTYPE svg PUBLIC "-//W3C//DTD SVG 1.1//EN" "http://www.w3.org/Graphics/SVG/1.1/DTD/svg11.dtd">
<svg version="1.1" id="Layer_1" xmlns="http://www.w3.org/2000/svg" xmlns:xlink="http://www.w3.org/1999/xlink" x="0px" y="0px"
	 width="600px" height="600px" viewBox="0 0 600 600" enable-background="new 0 0 600 600" xml:space="preserve">
<text transform="matrix(0.9876 0 0 1 150.522 453.0322)" fill="#908FB3" stroke="#000000" stroke-dasharray="12" font-family="'MyriadPro-Regular'" font-size="224.7128">800</text>
<text transform="matrix(0.6373 0 0 1 144.2666 282.832)" fill="#908FB3" font-family="'MyriadPro-Regular'" font-size="231.1529">Yasso</text>
<g>
	<g>
		<path d="M194.535,424.056c30.508-31.96,61.016-63.921,91.523-95.881c31.187-32.672,62.373-65.343,93.56-98.015
			c0.011-0.011,0.021-0.021,0.031-0.032c6.666-6.984-3.969-17.568-10.666-10.552c-30.508,31.961-61.016,63.921-91.522,95.882
			c-31.187,32.672-62.373,65.343-93.56,98.015c-0.01,0.012-0.021,0.021-0.031,0.032
			C177.203,420.488,187.837,431.072,194.535,424.056L194.535,424.056z"/>
	</g>
</g>
<g>
	<g>
		<path d="M332.405,187.652c20.728,20.448,41.456,40.896,62.185,61.345c6.88,6.787,17.452-3.857,10.551-10.665
			c-20.728-20.448-41.456-40.896-62.185-61.345C336.076,170.2,325.504,180.844,332.405,187.652L332.405,187.652z"/>
	</g>
</g>
<g>
	<g>
		<path d="M392.363,243.61c0,18.779,0,37.558,0,56.336c0,9.686,15.004,9.772,15.004,0.108c0-18.779,0-37.558,0-56.336
			C407.367,234.032,392.363,233.946,392.363,243.61L392.363,243.61z"/>
	</g>
</g>
<g>
	<g>
		<path d="M399.813,307.502c17.087,0,34.174,0,51.261,0c9.686,0,9.771-15.004,0.106-15.004c-17.087,0-34.174,0-51.261,0
			C390.233,292.498,390.147,307.502,399.813,307.502L399.813,307.502z"/>
	</g>
</g>
<g>
	<g>
		<path d="M332.348,177.044c-12.56,12.885-25.12,25.77-37.68,38.655c-6.744,6.918,3.896,17.495,10.665,10.551
			c12.561-12.885,25.121-25.77,37.682-38.655C349.757,180.677,339.116,170.1,332.348,177.044L332.348,177.044z"/>
	</g>
</g>
<g>
	<g>
		<path d="M288.207,314.867c17.533,17.818,35.067,35.638,52.602,53.457c6.782,6.893,17.346-3.762,10.552-10.666
			c-17.533-17.818-35.067-35.639-52.603-53.457C291.976,297.309,281.413,307.962,288.207,314.867L288.207,314.867z"/>
	</g>
</g>
<g>
	<g>
		<path d="M342.286,356.521c-19.607,10.363-39.216,20.729-58.824,31.092c-8.55,4.521-0.944,17.454,7.596,12.939
			c19.608-10.363,39.215-20.729,58.824-31.093C358.433,364.941,350.826,352.008,342.286,356.521L342.286,356.521z"/>
	</g>
</g>
<polygon fill="none" stroke="#000000" points="-261.479,62.151 -261.479,62.151 -261.479,62.151 "/>
<g id="XMLID_1_">
	<g>
		<path d="M412.32,173.1c12.278,0,22.229,9.95,22.229,22.23c0,12.27-9.95,22.23-22.229,22.23c-12.271,0-22.222-9.96-22.222-22.23
			C390.1,183.05,400.05,173.1,412.32,173.1z"/>
	</g>
	<g>
		<path fill="none" stroke="#000000" d="M434.55,195.33c0-12.28-9.95-22.23-22.229-22.23c-12.271,0-22.222,9.95-22.222,22.23
			c0,12.27,9.95,22.23,22.222,22.23C424.6,217.56,434.55,207.6,434.55,195.33z"/>
	</g>
</g>
<g>
	<g>
		<path d="M309.535,325.057c26.005-28.851,52.011-57.702,78.016-86.552c6.45-7.155-4.167-17.76-10.664-10.552
			c-26.006,28.851-52.012,57.701-78.017,86.552C292.42,321.66,303.037,332.266,309.535,325.057L309.535,325.057z"/>
	</g>
</g>
</svg>
